# Blender v2.93.4 OBJ File: 'nord_animated.blend'
# www.blender.org
mtllib nord_animated.mtl
o Nord_Cube
v -0.500000 3.000000 0.375000
v -0.500000 4.000000 0.375000
v -0.500000 3.000000 -0.500000
v -0.500000 4.000000 -0.500000
v 0.500000 3.000000 0.375000
v 0.500000 4.000000 0.375000
v 0.500000 3.000000 -0.500000
v 0.500000 4.000000 -0.500000
v -0.500000 3.562500 0.500000
v -0.500000 4.000000 0.500000
v -0.500000 3.562500 0.375000
v 0.500000 3.562500 0.500000
v 0.500000 4.000000 0.500000
v 0.500000 3.562500 0.375000
v -0.125000 3.250000 0.500000
v -0.125000 3.562500 0.500000
v -0.125000 3.250000 0.375000
v -0.125000 3.562500 0.375000
v 0.125000 3.250000 0.500000
v 0.125000 3.562500 0.500000
v 0.125000 3.250000 0.375000
v 0.125000 3.562500 0.375000
v -0.500000 2.000000 0.250000
v -0.500000 2.875000 0.250000
v -0.500000 2.000000 -0.375000
v -0.500000 2.875000 -0.375000
v 0.500000 2.000000 0.250000
v 0.500000 2.875000 0.250000
v 0.500000 2.000000 -0.375000
v 0.500000 2.875000 -0.375000
v -0.375000 1.375000 0.187500
v -0.375000 2.000000 0.187500
v -0.375000 1.375000 -0.312500
v -0.375000 2.000000 -0.312500
v 0.375000 1.375000 0.187500
v 0.375000 2.000000 0.187500
v 0.375000 1.375000 -0.312500
v 0.375000 2.000000 -0.312500
v -0.125000 2.875000 0.062500
v -0.125000 3.000000 0.062500
v -0.125000 2.875000 -0.187500
v -0.125000 3.000000 -0.187500
v 0.125000 2.875000 0.062500
v 0.125000 3.000000 0.062500
v 0.125000 2.875000 -0.187500
v 0.125000 3.000000 -0.187500
v -0.375000 0.000000 0.125000
v -0.375000 1.375000 0.125000
v -0.375000 0.000000 -0.250000
v -0.375000 1.375000 -0.250000
v 0.000000 0.000000 0.125000
v 0.000000 1.375000 0.125000
v 0.000000 0.000000 -0.250000
v 0.000000 1.375000 -0.250000
v -0.000000 0.000000 0.125000
v -0.000000 1.375000 0.125000
v -0.000000 0.000000 -0.250000
v -0.000000 1.375000 -0.250000
v 0.375000 0.000000 0.125000
v 0.375000 1.375000 0.125000
v 0.375000 0.000000 -0.250000
v 0.375000 1.375000 -0.250000
v -0.750000 2.000000 0.062500
v -0.750000 2.875000 0.062500
v -0.750000 2.000000 -0.187500
v -0.750000 2.875000 -0.187500
v -0.500000 2.000000 0.062500
v -0.500000 2.875000 0.062500
v -0.500000 2.000000 -0.187500
v -0.500000 2.875000 -0.187500
v -0.750000 1.375000 0.062500
v -0.750000 2.000000 0.062500
v -0.750000 1.375000 -0.187500
v -0.750000 2.000000 -0.187500
v -0.500000 1.375000 0.062500
v -0.500000 2.000000 0.062500
v -0.500000 1.375000 -0.187500
v -0.500000 2.000000 -0.187500
v 0.500000 2.000000 0.062500
v 0.500000 2.875000 0.062500
v 0.500000 2.000000 -0.187500
v 0.500000 2.875000 -0.187500
v 0.750000 2.000000 0.062500
v 0.750000 2.875000 0.062500
v 0.750000 2.000000 -0.187500
v 0.750000 2.875000 -0.187500
v 0.500000 1.375000 0.062500
v 0.500000 2.000000 0.062500
v 0.500000 1.375000 -0.187500
v 0.500000 2.000000 -0.187500
v 0.750000 1.375000 0.062500
v 0.750000 2.000000 0.062500
v 0.750000 1.375000 -0.187500
v 0.750000 2.000000 -0.187500
v 0.500000 1.000000 0.125000
v 0.500000 1.375000 0.125000
v 0.500000 1.000000 -0.250000
v 0.500000 1.375000 -0.250000
v 0.750000 1.000000 0.125000
v 0.750000 1.375000 0.125000
v 0.750000 1.000000 -0.250000
v 0.750000 1.375000 -0.250000
v -0.750000 1.000000 0.125000
v -0.750000 1.375000 0.125000
v -0.750000 1.000000 -0.250000
v -0.750000 1.375000 -0.250000
v -0.500000 1.000000 0.125000
v -0.500000 1.375000 0.125000
v -0.500000 1.000000 -0.250000
v -0.500000 1.375000 -0.250000
vt 0.335938 0.179688
vt 0.335938 0.289062
vt 0.437500 0.289062
vt 0.437500 0.179688
vt 0.023438 0.023438
vt 0.023438 0.132812
vt 0.132812 0.132812
vt 0.132812 0.023438
vt 0.437500 0.023438
vt 0.437500 0.132812
vt 0.335938 0.132812
vt 0.335938 0.023438
vt 0.132812 0.179688
vt 0.132812 0.289062
vt 0.023438 0.289062
vt 0.023438 0.179688
vt 0.179688 0.281250
vt 0.289062 0.281250
vt 0.289062 0.179688
vt 0.179688 0.179688
vt 0.289062 0.132812
vt 0.179688 0.132812
vt 0.179688 0.039062
vt 0.289062 0.039062
vt 0.265625 0.460938
vt 0.265625 0.515625
vt 0.281250 0.515625
vt 0.281250 0.460938
vt 0.125000 0.476562
vt 0.125000 0.531250
vt 0.109375 0.531250
vt 0.109375 0.476562
vt 0.289062 0.664062
vt 0.289062 0.710938
vt 0.179688 0.710938
vt 0.179688 0.664062
vt 0.179688 0.773438
vt 0.289062 0.773438
vt 0.289062 0.757812
vt 0.179688 0.757812
vt 0.179688 0.023438
vt 0.289062 0.023438
vt 0.265625 0.554688
vt 0.265625 0.593750
vt 0.281250 0.593750
vt 0.281250 0.554688
vt 0.125000 0.570312
vt 0.125000 0.609375
vt 0.109375 0.609375
vt 0.109375 0.570312
vt 0.835938 0.890625
vt 0.835938 0.929688
vt 0.804688 0.929688
vt 0.804688 0.890625
vt 0.953125 0.289062
vt 0.976562 0.289062
vt 0.976562 0.281250
vt 0.953125 0.281250
vt 0.335938 0.562500
vt 0.335938 0.664062
vt 0.406250 0.664062
vt 0.406250 0.562500
vt 0.179688 0.320312
vt 0.179688 0.421875
vt 0.289062 0.421875
vt 0.289062 0.320312
vt 0.718750 0.023438
vt 0.718750 0.117188
vt 0.648438 0.117188
vt 0.648438 0.023438
vt 0.132812 0.335938
vt 0.132812 0.437500
vt 0.023438 0.437500
vt 0.023438 0.335938
vt 0.335938 0.523438
vt 0.445312 0.523438
vt 0.445312 0.453125
vt 0.335938 0.453125
vt 0.445312 0.406250
vt 0.335938 0.406250
vt 0.335938 0.335938
vt 0.445312 0.335938
vt 0.664062 0.437500
vt 0.664062 0.507812
vt 0.718750 0.507812
vt 0.718750 0.437500
vt 0.476562 0.218750
vt 0.476562 0.289062
vt 0.562500 0.289062
vt 0.562500 0.218750
vt 0.718750 0.546875
vt 0.718750 0.617188
vt 0.664062 0.617188
vt 0.664062 0.546875
vt 0.695312 0.218750
vt 0.695312 0.289062
vt 0.609375 0.289062
vt 0.609375 0.218750
vt 0.023438 0.734375
vt 0.109375 0.734375
vt 0.109375 0.679688
vt 0.023438 0.679688
vt 0.750000 0.390625
vt 0.664062 0.390625
vt 0.664062 0.335938
vt 0.750000 0.335938
vt 0.882812 0.953125
vt 0.882812 0.960938
vt 0.906250 0.960938
vt 0.906250 0.953125
vt 0.921875 0.507812
vt 0.921875 0.523438
vt 0.953125 0.523438
vt 0.953125 0.507812
vt 0.906250 0.367188
vt 0.906250 0.375000
vt 0.875000 0.375000
vt 0.875000 0.367188
vt 0.523438 0.960938
vt 0.523438 0.976562
vt 0.492188 0.976562
vt 0.492188 0.960938
vt 0.320312 0.960938
vt 0.351562 0.960938
vt 0.351562 0.937500
vt 0.320312 0.937500
vt 0.976562 0.218750
vt 0.953125 0.218750
vt 0.953125 0.195312
vt 0.976562 0.195312
vt 0.492188 0.531250
vt 0.492188 0.687500
vt 0.531250 0.687500
vt 0.531250 0.531250
vt 0.562500 0.023438
vt 0.562500 0.179688
vt 0.609375 0.179688
vt 0.609375 0.023438
vt 0.062500 0.476562
vt 0.062500 0.632812
vt 0.023438 0.632812
vt 0.023438 0.476562
vt 0.523438 0.023438
vt 0.523438 0.179688
vt 0.476562 0.179688
vt 0.476562 0.023438
vt 0.320312 0.890625
vt 0.367188 0.890625
vt 0.367188 0.851562
vt 0.320312 0.851562
vt 0.609375 0.890625
vt 0.562500 0.890625
vt 0.562500 0.851562
vt 0.609375 0.851562
vt 0.578125 0.531250
vt 0.578125 0.687500
vt 0.617188 0.687500
vt 0.617188 0.531250
vt 0.179688 0.460938
vt 0.179688 0.617188
vt 0.218750 0.617188
vt 0.218750 0.460938
vt 0.617188 0.335938
vt 0.617188 0.492188
vt 0.578125 0.492188
vt 0.578125 0.335938
vt 0.531250 0.335938
vt 0.531250 0.492188
vt 0.492188 0.492188
vt 0.492188 0.335938
vt 0.765625 0.617188
vt 0.804688 0.617188
vt 0.804688 0.578125
vt 0.765625 0.578125
vt 0.523438 0.921875
vt 0.476562 0.921875
vt 0.476562 0.875000
vt 0.523438 0.875000
vt 0.765625 0.437500
vt 0.765625 0.531250
vt 0.789062 0.531250
vt 0.789062 0.437500
vt 0.734375 0.195312
vt 0.734375 0.289062
vt 0.765625 0.289062
vt 0.765625 0.195312
vt 0.523438 0.734375
vt 0.523438 0.835938
vt 0.492188 0.835938
vt 0.492188 0.734375
vt 0.765625 0.664062
vt 0.765625 0.765625
vt 0.734375 0.765625
vt 0.734375 0.664062
vt 0.921875 0.460938
vt 0.953125 0.460938
vt 0.953125 0.437500
vt 0.921875 0.437500
vt 0.421875 0.960938
vt 0.390625 0.960938
vt 0.390625 0.937500
vt 0.421875 0.937500
vt 0.804688 0.195312
vt 0.804688 0.265625
vt 0.835938 0.265625
vt 0.835938 0.195312
vt 0.835938 0.023438
vt 0.835938 0.093750
vt 0.867188 0.093750
vt 0.867188 0.023438
vt 0.835938 0.664062
vt 0.835938 0.734375
vt 0.804688 0.734375
vt 0.804688 0.664062
vt 0.835938 0.304688
vt 0.835938 0.375000
vt 0.804688 0.375000
vt 0.804688 0.304688
vt 0.562500 0.960938
vt 0.593750 0.960938
vt 0.593750 0.937500
vt 0.562500 0.937500
vt 0.765625 0.921875
vt 0.734375 0.921875
vt 0.734375 0.890625
vt 0.765625 0.890625
vt 0.406250 0.703125
vt 0.406250 0.804688
vt 0.437500 0.804688
vt 0.437500 0.703125
vt 0.765625 0.023438
vt 0.765625 0.117188
vt 0.789062 0.117188
vt 0.789062 0.023438
vt 0.367188 0.703125
vt 0.367188 0.804688
vt 0.335938 0.804688
vt 0.335938 0.703125
vt 0.695312 0.664062
vt 0.695312 0.765625
vt 0.664062 0.765625
vt 0.664062 0.664062
vt 0.937500 0.609375
vt 0.960938 0.609375
vt 0.960938 0.578125
vt 0.937500 0.578125
vt 0.203125 0.929688
vt 0.179688 0.929688
vt 0.179688 0.898438
vt 0.203125 0.898438
vt 0.023438 0.781250
vt 0.023438 0.851562
vt 0.046875 0.851562
vt 0.046875 0.781250
vt 0.093750 0.781250
vt 0.093750 0.851562
vt 0.125000 0.851562
vt 0.125000 0.781250
vt 0.593750 0.734375
vt 0.593750 0.804688
vt 0.562500 0.804688
vt 0.562500 0.734375
vt 0.835938 0.781250
vt 0.835938 0.851562
vt 0.804688 0.851562
vt 0.804688 0.781250
vt 0.906250 0.046875
vt 0.937500 0.046875
vt 0.937500 0.023438
vt 0.906250 0.023438
vt 0.937500 0.125000
vt 0.906250 0.125000
vt 0.906250 0.093750
vt 0.937500 0.093750
vt 0.179688 0.812500
vt 0.179688 0.859375
vt 0.226562 0.859375
vt 0.226562 0.812500
vt 0.882812 0.664062
vt 0.882812 0.710938
vt 0.914062 0.710938
vt 0.914062 0.664062
vt 0.898438 0.578125
vt 0.898438 0.625000
vt 0.851562 0.625000
vt 0.851562 0.578125
vt 0.914062 0.781250
vt 0.914062 0.828125
vt 0.882812 0.828125
vt 0.882812 0.781250
vt 0.023438 0.937500
vt 0.054688 0.937500
vt 0.054688 0.890625
vt 0.023438 0.890625
vt 0.125000 0.945312
vt 0.093750 0.945312
vt 0.093750 0.890625
vt 0.125000 0.890625
vt 0.835938 0.437500
vt 0.835938 0.484375
vt 0.882812 0.484375
vt 0.882812 0.437500
vt 0.875000 0.281250
vt 0.875000 0.320312
vt 0.906250 0.320312
vt 0.906250 0.281250
vt 0.703125 0.804688
vt 0.703125 0.851562
vt 0.664062 0.851562
vt 0.664062 0.804688
vt 0.906250 0.195312
vt 0.906250 0.242188
vt 0.875000 0.242188
vt 0.875000 0.195312
vt 0.882812 0.906250
vt 0.906250 0.906250
vt 0.906250 0.867188
vt 0.882812 0.867188
vt 0.695312 0.937500
vt 0.664062 0.937500
vt 0.664062 0.890625
vt 0.695312 0.890625
vn -1.0000 0.0000 0.0000
vn -0.0000 0.0000 -1.0000
vn 1.0000 0.0000 -0.0000
vn 0.0000 0.0000 1.0000
vn 0.0000 -1.0000 0.0000
vn 0.0000 1.0000 -0.0000
usemtl Material
s off
f 1/1/1 2/2/1 4/3/1 3/4/1
f 3/5/2 4/6/2 8/7/2 7/8/2
f 7/9/3 8/10/3 6/11/3 5/12/3
f 5/13/4 6/14/4 2/15/4 1/16/4
f 3/17/5 7/18/5 5/19/5 1/20/5
f 8/21/6 4/22/6 2/23/6 6/24/6
f 9/25/1 10/26/1 2/27/1 11/28/1
f 14/29/3 6/30/3 13/31/3 12/32/3
f 12/33/4 13/34/4 10/35/4 9/36/4
f 11/37/5 14/38/5 12/39/5 9/40/5
f 6/24/6 2/23/6 10/41/6 13/42/6
f 15/43/1 16/44/1 18/45/1 17/46/1
f 21/47/3 22/48/3 20/49/3 19/50/3
f 19/51/4 20/52/4 16/53/4 15/54/4
f 17/55/5 21/56/5 19/57/5 15/58/5
f 23/59/1 24/60/1 26/61/1 25/62/1
f 25/63/2 26/64/2 30/65/2 29/66/2
f 29/67/3 30/68/3 28/69/3 27/70/3
f 27/71/4 28/72/4 24/73/4 23/74/4
f 25/75/5 29/76/5 27/77/5 23/78/5
f 30/79/6 26/80/6 24/81/6 28/82/6
f 31/83/1 32/84/1 34/85/1 33/86/1
f 33/87/2 34/88/2 38/89/2 37/90/2
f 37/91/3 38/92/3 36/93/3 35/94/3
f 35/95/4 36/96/4 32/97/4 31/98/4
f 33/99/5 37/100/5 35/101/5 31/102/5
f 38/103/6 34/104/6 32/105/6 36/106/6
f 39/107/1 40/108/1 42/109/1 41/110/1
f 41/111/2 42/112/2 46/113/2 45/114/2
f 45/115/3 46/116/3 44/117/3 43/118/3
f 43/119/4 44/120/4 40/121/4 39/122/4
f 41/123/5 45/124/5 43/125/5 39/126/5
f 46/127/6 42/128/6 40/129/6 44/130/6
f 47/131/1 48/132/1 50/133/1 49/134/1
f 49/135/2 50/136/2 54/137/2 53/138/2
f 53/139/3 54/140/3 52/141/3 51/142/3
f 51/143/4 52/144/4 48/145/4 47/146/4
f 49/147/5 53/148/5 51/149/5 47/150/5
f 54/151/6 50/152/6 48/153/6 52/154/6
f 55/155/1 56/156/1 58/157/1 57/158/1
f 57/159/2 58/160/2 62/161/2 61/162/2
f 61/163/3 62/164/3 60/165/3 59/166/3
f 59/167/4 60/168/4 56/169/4 55/170/4
f 57/171/5 61/172/5 59/173/5 55/174/5
f 62/175/6 58/176/6 56/177/6 60/178/6
f 63/179/1 64/180/1 66/181/1 65/182/1
f 65/183/2 66/184/2 70/185/2 69/186/2
f 69/187/3 70/188/3 68/189/3 67/190/3
f 67/191/4 68/192/4 64/193/4 63/194/4
f 65/195/5 69/196/5 67/197/5 63/198/5
f 70/199/6 66/200/6 64/201/6 68/202/6
f 71/203/1 72/204/1 74/205/1 73/206/1
f 73/207/2 74/208/2 78/209/2 77/210/2
f 77/211/3 78/212/3 76/213/3 75/214/3
f 75/215/4 76/216/4 72/217/4 71/218/4
f 73/219/5 77/220/5 75/221/5 71/222/5
f 78/223/6 74/224/6 72/225/6 76/226/6
f 79/227/1 80/228/1 82/229/1 81/230/1
f 81/231/2 82/232/2 86/233/2 85/234/2
f 85/235/3 86/236/3 84/237/3 83/238/3
f 83/239/4 84/240/4 80/241/4 79/242/4
f 81/243/5 85/244/5 83/245/5 79/246/5
f 86/247/6 82/248/6 80/249/6 84/250/6
f 87/251/1 88/252/1 90/253/1 89/254/1
f 89/255/2 90/256/2 94/257/2 93/258/2
f 93/259/3 94/260/3 92/261/3 91/262/3
f 91/263/4 92/264/4 88/265/4 87/266/4
f 89/267/5 93/268/5 91/269/5 87/270/5
f 94/271/6 90/272/6 88/273/6 92/274/6
f 95/275/1 96/276/1 98/277/1 97/278/1
f 97/279/2 98/280/2 102/281/2 101/282/2
f 101/283/3 102/284/3 100/285/3 99/286/3
f 99/287/4 100/288/4 96/289/4 95/290/4
f 97/291/5 101/292/5 99/293/5 95/294/5
f 102/295/6 98/296/6 96/297/6 100/298/6
f 103/299/1 104/300/1 106/301/1 105/302/1
f 105/303/2 106/304/2 110/305/2 109/306/2
f 109/307/3 110/308/3 108/309/3 107/310/3
f 107/311/4 108/312/4 104/313/4 103/314/4
f 105/315/5 109/316/5 107/317/5 103/318/5
f 110/319/6 106/320/6 104/321/6 108/322/6
